HIERARCHY
ROOT joint_Root
{
	OFFSET 0.0 0.0 0.0
	CHANNELS 6 Xposition Yposition Zposition Zrotation Xrotation Yrotation 
	JOINT Hips
	{
		OFFSET -17.1583 93.1646 452.98
		CHANNELS 6 Xposition Yposition Zposition Zrotation Xrotation Yrotation 
		JOINT Spine
		{
			OFFSET 15.7357 0.0 0.0
			CHANNELS 6 Xposition Yposition Zposition Zrotation Xrotation Yrotation 
			JOINT Chest
			{
				OFFSET 8.98455 -0.406207 0.0
				CHANNELS 6 Xposition Yposition Zposition Zrotation Xrotation Yrotation 
				JOINT Neck
				{
					OFFSET 16.3773 0.0 0.0
					CHANNELS 6 Xposition Yposition Zposition Zrotation Xrotation Yrotation 
					JOINT Head
					{
						OFFSET 6.45672 0.0 0.0
						CHANNELS 6 Xposition Yposition Zposition Zrotation Xrotation Yrotation 
						End Site
						{
							OFFSET 0.0 0.0 0.0
						}
					}
				}
				JOINT Shoulder_L
				{
					OFFSET 12.9942 -0.242716 4.98039
					CHANNELS 6 Xposition Yposition Zposition Zrotation Xrotation Yrotation 
					JOINT UpperArm_L
					{
						OFFSET 5.34809 0.0 0.0
						CHANNELS 6 Xposition Yposition Zposition Zrotation Xrotation Yrotation 
						JOINT LowerArm_L
						{
							OFFSET 24.3286 1.87007e-05 0.0
							CHANNELS 6 Xposition Yposition Zposition Zrotation Xrotation Yrotation 
							JOINT Hand_L
							{
								OFFSET 22.2916 0.0 0.0
								CHANNELS 6 Xposition Yposition Zposition Zrotation Xrotation Yrotation 
								End Site
								{
									OFFSET 0.0 0.0 0.0
								}
							}
						}
					}
				}
				JOINT Shoulder_R
				{
					OFFSET 12.9945 -0.242716 -4.98039
					CHANNELS 6 Xposition Yposition Zposition Zrotation Xrotation Yrotation 
					JOINT UpperArm_R
					{
						OFFSET -5.34813 0.0 0.0
						CHANNELS 6 Xposition Yposition Zposition Zrotation Xrotation Yrotation 
						JOINT LowerArm_R
						{
							OFFSET -24.3289 0.000322201 0.0
							CHANNELS 6 Xposition Yposition Zposition Zrotation Xrotation Yrotation 
							JOINT Hand_R
							{
								OFFSET -22.2915 -0.000108084 0.0
								CHANNELS 6 Xposition Yposition Zposition Zrotation Xrotation Yrotation 
								End Site
								{
									OFFSET 0.0 0.0 0.0
								}
							}
						}
					}
				}
			}
		}
		JOINT UpperLeg_L
		{
			OFFSET -2.19248 -6.46944 0.0
			CHANNELS 6 Xposition Yposition Zposition Zrotation Xrotation Yrotation 
			JOINT LowerLeg_L
			{
				OFFSET 39.0811 0.0 -1.23785e-05
				CHANNELS 6 Xposition Yposition Zposition Zrotation Xrotation Yrotation 
				JOINT Foot_L
				{
					OFFSET 40.9854 0.0 -1.26872e-05
					CHANNELS 6 Xposition Yposition Zposition Zrotation Xrotation Yrotation 
					JOINT Toes_L
					{
						OFFSET 11.7543 0.0 0.0
						CHANNELS 6 Xposition Yposition Zposition Zrotation Xrotation Yrotation 
						End Site
						{
							OFFSET 0.0 0.0 0.0
						}
					}
				}
			}
		}
		JOINT UpperLeg_R
		{
			OFFSET -2.19251 6.46944 0.0
			CHANNELS 6 Xposition Yposition Zposition Zrotation Xrotation Yrotation 
			JOINT LowerLeg_R
			{
				OFFSET -39.0811 -0.00228153 -0.0401928
				CHANNELS 6 Xposition Yposition Zposition Zrotation Xrotation Yrotation 
				JOINT Foot_R
				{
					OFFSET -40.9854 0.0 0.0
					CHANNELS 6 Xposition Yposition Zposition Zrotation Xrotation Yrotation 
					JOINT Toes_R
					{
						OFFSET -11.7543 0.0 0.0
						CHANNELS 6 Xposition Yposition Zposition Zrotation Xrotation Yrotation 
						End Site
						{
							OFFSET 0.0 0.0 0.0
						}
					}
				}
			}
		}
	}
}
MOTION
Frames:	8
Frame Time:	0.0333333
0.000000 0.000000 0.000000 0.000000 0.000000 -0.000000 -4.123130 91.970500 -1.567130 83.955700 1.008360 2.952580 15.735700 0.000005 -0.000001 71.767400 86.943400 -68.705700 8.984550 -0.406207 -0.000000 -1.894890 -2.170100 6.086930 16.377300 -0.000001 -0.000001 8.425070 3.826550 4.321250 6.456720 -0.000001 -0.000000 4.983140 7.346880 4.838600 12.994200 -0.242716 4.980390 -92.509500 7.681030 -71.845200 5.348090 -0.000007 -0.000001 -74.574900 29.162400 1.682850 24.328600 0.000019 0.000005 12.918800 28.088000 -25.974200 22.291600 -0.000001 0.000005 -4.154780 5.036210 6.539560 12.994500 -0.242716 -4.980390 87.951000 6.339510 -72.047300 -5.348130 -0.000001 -0.000004 -67.602600 -6.752740 -5.751960 -24.328900 0.000322 -0.000009 10.450500 -9.589350 -132.088000 -22.291500 -0.000108 -0.000004 62.915900 5.524450 -7.573870 -2.192480 -6.469440 -0.000000 -170.791000 0.540539 -6.244900 39.081100 -0.000007 -0.000012 0.394861 -0.723106 28.638300 40.985400 -0.000006 -0.000013 0.656791 10.041500 -75.754000 11.754300 -0.000000 0.000003 0.000480 0.159119 -10.123400 -2.192510 6.469440 -0.000001 -169.031000 8.666760 -178.148000 -39.081100 -0.002282 -0.040193 0.121229 -0.452853 14.592900 -40.985400 0.000008 0.000006 6.324950 1.153400 -70.273900 -11.754300 -0.000006 -0.000006 -0.010154 0.272455 -5.503950
0.000000 0.000000 0.000000 0.000000 0.000000 -0.000000 -4.128580 91.967300 -1.575060 83.991900 1.048050 2.963890 15.735700 0.000005 -0.000001 71.849200 86.949300 -68.803100 8.984550 -0.406207 -0.000000 -1.904070 -2.157060 6.055690 16.377300 -0.000001 -0.000001 8.467060 3.797880 4.246530 6.456720 -0.000001 -0.000000 5.032830 7.280810 4.757790 12.994200 -0.242716 4.980390 -92.516600 7.706010 -71.852300 5.348090 -0.000007 -0.000001 -74.564800 29.191300 1.728360 24.328600 0.000019 0.000005 12.873500 27.991000 -25.963800 22.291600 -0.000001 0.000005 -4.084640 5.036550 6.532060 12.994500 -0.242716 -4.980390 87.944800 6.341560 -72.002000 -5.348130 -0.000001 -0.000004 -68.015500 -7.625000 -6.046030 -24.328900 0.000322 -0.000009 2.393950 -2.275640 -133.534000 -22.291500 -0.000108 -0.000004 64.178000 5.427290 -3.862120 -2.192480 -6.469440 -0.000000 -170.824000 0.547361 -6.254550 39.081100 -0.000007 -0.000012 0.395299 -0.723620 28.647900 40.985400 -0.000006 -0.000013 0.657295 10.060300 -75.771300 11.754300 -0.000000 0.000003 0.000339 0.161712 -10.018100 -2.192510 6.469440 -0.000001 -169.064000 8.674170 -178.193000 -39.081100 -0.002282 -0.040193 0.122755 -0.455889 14.679500 -40.985400 0.000008 0.000006 6.316910 1.099950 -70.301500 -11.754300 -0.000006 -0.000006 -0.010357 0.273954 -5.442620
0.000000 0.000000 0.000000 0.000000 0.000000 -0.000000 -4.141690 91.965400 -1.576490 83.978600 1.084970 2.970220 15.735700 0.000005 -0.000001 71.866600 86.949900 -68.817600 8.984550 -0.406207 -0.000000 -1.904540 -2.155220 6.061540 16.377300 -0.000001 -0.000001 8.490150 3.791890 4.130990 6.456720 -0.000001 -0.000000 5.066210 7.277280 4.700810 12.994200 -0.242716 4.980390 -92.519600 7.706800 -71.834000 5.348090 -0.000007 -0.000001 -74.573600 29.179600 1.747200 24.328600 0.000019 0.000005 12.925500 28.142100 -25.946300 22.291600 -0.000001 0.000005 -4.162200 5.033900 6.589860 12.994500 -0.242716 -4.980390 87.946700 6.315390 -71.947700 -5.348130 -0.000001 -0.000004 -68.163600 -8.018740 -6.144580 -24.328900 0.000322 -0.000009 -3.600010 3.464910 -133.851000 -22.291500 -0.000108 -0.000004 65.471800 5.380300 -2.312240 -2.192480 -6.469440 -0.000000 -170.799000 0.575076 -6.264190 39.081100 -0.000007 -0.000012 0.396216 -0.724841 28.663100 40.985400 -0.000006 -0.000013 0.648874 10.072700 -75.773800 11.754300 -0.000000 0.000003 0.000446 0.159747 -10.097900 -2.192510 6.469440 -0.000001 -169.043000 8.729990 -178.168000 -39.081100 -0.002282 -0.040193 0.121849 -0.453420 14.648800 -40.985400 0.000008 0.000006 6.334220 1.124980 -70.312500 -11.754300 -0.000006 -0.000006 -0.010508 0.275060 -5.397370
0.000000 0.000000 0.000000 0.000000 0.000000 -0.000000 -4.155050 91.961700 -1.574590 83.976100 1.062500 2.985510 15.735700 0.000005 -0.000001 71.754200 86.941100 -68.691900 8.984550 -0.406207 -0.000000 -1.890840 -2.172830 6.088280 16.377300 -0.000001 -0.000001 8.551700 3.843160 4.039960 6.456720 -0.000001 -0.000000 5.080000 7.337850 4.558300 12.994200 -0.242716 4.980390 -92.535300 7.746550 -71.814700 5.348090 -0.000007 -0.000001 -74.574900 29.128000 1.846350 24.328600 0.000019 0.000005 12.868600 28.067700 -25.898300 22.291600 -0.000001 0.000005 -4.125710 5.034700 6.572510 12.994500 -0.242716 -4.980390 87.968300 6.241310 -71.928500 -5.348130 -0.000001 -0.000004 -68.017700 -7.249490 -5.779450 -24.328900 0.000322 -0.000009 -1.686150 1.602270 -133.522000 -22.291500 -0.000108 -0.000004 65.148000 5.379790 -2.296040 -2.192480 -6.469440 -0.000000 -170.783000 0.573847 -6.255120 39.081100 -0.000007 -0.000012 0.394570 -0.721406 28.677200 40.985400 -0.000006 -0.000013 0.642591 10.088500 -75.766800 11.754300 -0.000000 0.000003 0.000342 0.161657 -10.020400 -2.192510 6.469440 -0.000001 -169.037000 8.716940 -178.174000 -39.081100 -0.002282 -0.040193 0.122639 -0.455003 14.693100 -40.985400 0.000008 0.000006 6.338750 1.126720 -70.349700 -11.754300 -0.000006 -0.000006 -0.010716 0.276578 -5.335270
0.000000 0.000000 0.000000 0.000000 0.000000 -0.000000 -4.166380 91.962200 -1.559220 83.989400 0.969275 2.961190 15.735700 0.000005 -0.000001 72.087900 86.934800 -69.016000 8.984550 -0.406207 -0.000000 -1.868320 -2.143050 6.108290 16.377300 -0.000001 -0.000001 8.495040 3.935450 3.952890 6.456720 -0.000001 -0.000000 5.122730 7.416370 4.441030 12.994200 -0.242716 4.980390 -92.547700 7.769060 -71.781300 5.348090 -0.000007 -0.000001 -74.560400 29.091700 1.898800 24.328600 0.000019 0.000005 12.850300 28.073700 -25.860900 22.291600 -0.000001 0.000005 -4.128070 5.036400 6.535490 12.994500 -0.242716 -4.980390 87.944100 6.331940 -71.970400 -5.348130 -0.000001 -0.000004 -67.212100 -5.387070 -5.059570 -24.328900 0.000322 -0.000009 4.308290 -4.034380 -133.041000 -22.291500 -0.000108 -0.000004 64.605600 5.472370 -5.467330 -2.192480 -6.469440 -0.000000 -170.793000 0.478302 -6.228620 39.081100 -0.000007 -0.000012 0.396798 -0.726285 28.650500 40.985400 -0.000006 -0.000013 0.635446 10.066400 -75.774600 11.754300 -0.000000 0.000003 0.000403 0.160534 -10.066000 -2.192510 6.469440 -0.000001 -169.032000 8.594660 -178.177000 -39.081100 -0.002282 -0.040193 0.122295 -0.454275 14.675100 -40.985400 0.000008 0.000006 6.348960 1.112940 -70.280100 -11.754300 -0.000006 -0.000006 -0.010308 0.273591 -5.457470
0.000000 0.000000 0.000000 0.000000 0.000000 -0.000000 -4.191140 91.958700 -1.545950 84.005300 0.967698 3.007300 15.735700 0.000005 -0.000001 72.085300 86.898200 -68.990800 8.984550 -0.406207 -0.000000 -1.797610 -2.165810 6.154430 16.377300 -0.000001 -0.000001 8.471040 4.035600 3.884250 6.456720 -0.000001 -0.000000 5.090190 7.499450 4.260400 12.994200 -0.242716 4.980390 -92.556000 7.773250 -71.734900 5.348090 -0.000007 -0.000001 -74.575600 29.066000 1.936300 24.328600 0.000019 0.000005 12.870200 28.173200 -25.823800 22.291600 -0.000001 0.000005 -4.255120 5.036160 6.540630 12.994500 -0.242716 -4.980390 87.891600 6.486950 -71.951200 -5.348130 -0.000001 -0.000004 -66.174000 -3.168680 -4.476500 -24.328900 0.000322 -0.000009 11.572500 -10.737000 -132.294000 -22.291500 -0.000108 -0.000004 64.388500 5.578130 -10.140500 -2.192480 -6.469440 -0.000000 -170.785000 0.523160 -6.162400 39.081100 -0.000007 -0.000012 0.392154 -0.718148 28.638300 40.985400 -0.000006 -0.000013 0.607862 10.050100 -75.792600 11.754300 -0.000000 0.000003 0.000387 0.160828 -10.054000 -2.192510 6.469440 -0.000001 -169.038000 8.635050 -178.122000 -39.081100 -0.002282 -0.040193 0.123601 -0.458691 14.692600 -40.985400 0.000008 0.000006 6.367770 1.122600 -70.375300 -11.754300 -0.000006 -0.000006 -0.010625 0.275914 -5.362430
0.000000 0.000000 0.000000 0.000000 0.000000 -0.000000 -4.223190 91.954600 -1.543130 84.008500 0.946229 2.962330 15.735700 0.000005 -0.000001 71.755600 86.896000 -68.641400 8.984550 -0.406207 -0.000000 -1.803060 -2.202910 6.193020 16.377300 -0.000001 -0.000001 8.594860 4.114890 3.854030 6.456720 -0.000001 -0.000000 4.977830 7.617200 4.162280 12.994200 -0.242716 4.980390 -92.551300 7.767820 -71.754400 5.348090 -0.000007 -0.000001 -74.624300 28.895300 2.043710 24.328600 0.000019 0.000005 12.908000 28.230100 -25.850300 22.291600 -0.000001 0.000005 -4.290920 5.037970 6.501190 12.994500 -0.242716 -4.980390 87.870000 6.542460 -71.922400 -5.348130 -0.000001 -0.000004 -65.476900 -1.685140 -4.119350 -24.328900 0.000322 -0.000009 18.776500 -17.132700 -130.907000 -22.291500 -0.000108 -0.000004 63.537400 5.660300 -16.276100 -2.192480 -6.469440 -0.000000 -170.767000 0.487365 -6.213290 39.081100 -0.000007 -0.000012 0.394267 -0.721665 28.650100 40.985400 -0.000006 -0.000013 0.586955 10.052700 -75.772600 11.754300 -0.000000 0.000003 0.000502 0.158690 -10.140800 -2.192510 6.469440 -0.000001 -168.997000 8.591830 -178.151000 -39.081100 -0.002282 -0.040193 0.124858 -0.464246 14.669500 -40.985400 0.000008 0.000006 6.393800 1.082960 -70.333100 -11.754300 -0.000006 -0.000006 -0.009582 0.268153 -5.679880
0.000000 0.000000 0.000000 0.000000 0.000000 -0.000000 -4.252090 91.954800 -1.537960 84.017300 0.911305 2.978190 15.735700 0.000005 -0.000001 71.435000 86.875000 -68.327900 8.984550 -0.406207 -0.000000 -1.773070 -2.247860 6.178790 16.377300 -0.000001 -0.000001 8.612360 4.183150 3.926510 6.456720 -0.000001 -0.000000 5.046940 7.744140 4.222640 12.994200 -0.242716 4.980390 -92.543200 7.730270 -71.726400 5.348090 -0.000007 -0.000001 -74.642200 28.882500 2.095520 24.328600 0.000019 0.000005 12.922800 28.250500 -25.862100 22.291600 -0.000001 0.000005 -4.354340 5.038360 6.492550 12.994500 -0.242716 -4.980390 87.834200 6.633260 -71.871800 -5.348130 -0.000001 -0.000004 -65.029800 -1.365250 -4.139100 -24.328900 0.000322 -0.000009 25.832200 -22.883100 -128.771000 -22.291500 -0.000108 -0.000004 62.951300 5.681550 -21.465400 -2.192480 -6.469440 -0.000000 -170.755000 0.440453 -6.171160 39.081100 -0.000007 -0.000012 0.394359 -0.722288 28.634900 40.985400 -0.000006 -0.000013 0.570360 10.060900 -75.812700 11.754300 -0.000000 0.000003 0.000229 0.163676 -9.938380 -2.192510 6.469440 -0.000001 -169.000000 8.574120 -178.126000 -39.081100 -0.002282 -0.040193 0.123365 -0.458736 14.663600 -40.985400 0.000008 0.000006 6.410800 1.110760 -70.333200 -11.754300 -0.000006 -0.000006 -0.010336 0.273802 -5.448850
